<?xml version="1.0" encoding="UTF-8"?>
<!-- CompactPhone application icon — phone-primary, white tile for
     dock visibility, with a red-orange "squawk signal" dot in the
     upper-right corner as the aviation/transponder accent.
     • Canvas: 1024 × 1024
     • Body:    880 × 880 white, centered (72px padding all round)
     • Corner: 197 (22.4% — macOS Apple-template proportions)
     • Phone:  navy filled handset (Lucide path), ~60% of body, centered
     • Dot:    red-orange "transmission" pip at the rounded-corner arc
                center — mirrors the small mark variants. -->
<svg xmlns="http://www.w3.org/2000/svg" viewBox="0 0 1024 1024">
  <rect x="72" y="72" width="880" height="880" rx="197" fill="#FFFFFF"/>
  <g transform="translate(248 248) scale(22)" fill="#003366">
    <path d="M22 16.92v3a2 2 0 0 1-2.18 2 19.79 19.79 0 0 1-8.63-3.07 19.5 19.5 0 0 1-6-6 19.79 19.79 0 0 1-3.07-8.67A2 2 0 0 1 4.11 2h3a2 2 0 0 1 2 1.72c.13.96.36 1.9.7 2.81a2 2 0 0 1-.45 2.11L8.09 9.91a16 16 0 0 0 6 6l1.27-1.27a2 2 0 0 1 2.11-.45c.91.34 1.85.57 2.81.7A2 2 0 0 1 22 16.92z"/>
  </g>
  <circle cx="755" cy="269" r="64" fill="#FF5349"/>
</svg>
