<?xml version="1.0" encoding="UTF-8"?>
<!-- Inverted (white wordmark) variant for dark theme tiles. The colored mark
     is kept as-is. Source: pbx/html/external/apihelp/v6/.../Daktela_logo_Colour_Inverted_Cropped.svg -->
<svg xmlns="http://www.w3.org/2000/svg" viewBox="0 0 485 125">
  <g>
    <path fill="#6cf" d="M.017,40.45v33.376C.017,101.971,22.833,124.788,50.979,124.788h33.376l.003-84.337H.017Z"/>
    <path fill="#ff5349" d="M73.545.212h-33.313v84.363s84.309-.026,84.309-.026h.029v-33.313C124.57,23.054,101.724.212,73.545.212Z"/>
    <rect fill="#036" x="40.232" y="40.451" width="44.125" height="44.125"/>
  </g>
  <g fill="#ffffff">
    <path d="M205.984,47.125c-3.754-5.174-9.011-7.84-15.684-7.84-11.677,0-21.602,8.173-21.602,23.268s10.261,23.022,21.602,23.022c6.926,0,12.179-3.252,15.85-9.007v8.006h10.423V25.939h-10.59v21.186ZM206.15,62.469c-2.002,8.259-7.092,14.098-14.181,14.098-6.839,0-12.093-5.174-12.093-14.181,0-9.34,5.253-14.094,12.01-14.094,6.59,0,12.093,5.253,14.264,13.762v.416Z"/>
    <path d="M262.7,47.291c-3.754-5.257-9.007-8.006-15.763-8.006-11.76,0-21.688,8.173-21.688,23.268s10.261,23.022,21.688,23.022c6.922,0,12.093-3.252,15.763-9.007v8.006h10.593v-44.121h-10.593v6.839ZM262.7,62.469c-2.002,8.259-7.089,14.098-14.177,14.098-6.843,0-12.096-5.174-12.096-14.181,0-9.34,5.253-14.094,12.096-14.094,6.503,0,12.009,5.253,14.177,13.762v.416Z"/>
    <polygon points="323.755 40.452 311.493 40.452 295.145 60.803 295.145 25.939 284.468 25.939 284.468 84.573 295.145 84.573 295.145 64.471 311.746 84.573 325.089 84.573 305.655 61.635 323.755 40.452"/>
    <path d="M351.196,76.401c-4.336,0-7.421-2.504-7.421-9.26v-18.516h16.262v-8.173h-16.262v-12.096h-10.593v12.096h-7.757v8.173h7.757v21.103c0,10.926,6.088,15.763,15.348,15.763,5.17,0,9.506-1.001,13.343-2.836l-1.669-8.256c-3.002,1.416-5.835,2.002-9.007,2.002Z"/>
    <path d="M387.314,39.285c-13.097,0-22.689,9.256-22.689,23.52s8.425,22.935,23.773,22.935c7.587,0,13.762-1.752,18.6-4.588l-1.835-7.67c-5.17,2.75-9.675,3.667-15.098,3.667-8.505,0-13.26-3.75-14.344-11.258h33.113c.166-.918.249-2.085.249-3.421,0-15.846-9.592-23.184-21.768-23.184ZM375.72,59.217c.918-7.591,4.921-11.511,11.424-11.511s10.178,3.837,10.929,11.511h-22.353Z"/>
    <rect x="417.591" y="25.939" width="10.676" height="58.635"/>
    <path d="M474.39,40.452v6.839c-3.754-5.257-9.007-8.006-15.763-8.006-11.76,0-21.685,8.173-21.685,23.268s10.257,23.022,21.685,23.022c6.922,0,12.093-3.252,15.763-9.007v8.006h10.593v-44.121h-10.593ZM474.39,62.469c-2.002,8.259-7.089,14.098-14.177,14.098-6.839,0-12.096-5.174-12.096-14.181,0-9.34,5.257-14.094,12.096-14.094,6.503,0,12.009,5.253,14.177,13.762v.416Z"/>
  </g>
</svg>
